# xmcd
#
# Track frame offsets: 
#        150
#        13509
#        28186
#        44505
#        57513
#        69046
#        82992
#        98007
#        125815
#
# Disc length: 1779 seconds
#
# Revision: 0
# Processed by: cddbd v1.5.2PL0 Copyright (c) Steve Scherf et al.
# Submitted via: ExactAudioCopyFreeDBPlugin 1.0
#
DISCID=7006f109
DTITLE=Tzja Giantor - tears used as glue on the back of a stamp on a b
DTITLE=eatiful postcard
DYEAR=2012
DGENRE=Blues
TTITLE0=storm coming
TTITLE1=your daddy called
TTITLE2=capital punishment
TTITLE3=burning tree
TTITLE4=broken wings
TTITLE5=slowly we die
TTITLE6=funeral dress
TTITLE7=dead friend
TTITLE8=basement
EXTD=
EXTT0=
EXTT1=
EXTT2=
EXTT3=
EXTT4=
EXTT5=
EXTT6=
EXTT7=
EXTT8=
PLAYORDER=
